<?xml version="1.0" encoding="iso-8859-1"?>
<!-- Generator: Adobe Illustrator 19.1.1, SVG Export Plug-In . SVG Version: 6.00 Build 0)  -->
<svg version="1.1" id="Layer_1" xmlns="http://www.w3.org/2000/svg" xmlns:xlink="http://www.w3.org/1999/xlink" x="0px" y="0px"
	 viewBox="0 0 40 40" style="enable-background:new 0 0 40 40;" xml:space="preserve">
<g>
	<rect x="1.5" y="6.5" style="fill:#FFEEA3;" width="37" height="27"/>
	<path style="fill:#BA9B48;" d="M38,7v26H2V7H38 M39,6H1v28h38V6L39,6z"/>
</g>
<path style="fill:#FFEEA3;stroke:#BA9B48;stroke-miterlimit:10;" d="M1.679,12.372l15.748,8.48c1.607,0.865,3.541,0.865,5.147,0
	l15.748-8.48"/>
<g>
	<circle style="fill:#BAE0BD;" cx="31" cy="31" r="8.5"/>
	<g>
		<path style="fill:#5E9C76;" d="M31,23c4.411,0,8,3.589,8,8s-3.589,8-8,8s-8-3.589-8-8S26.589,23,31,23 M31,22
			c-4.971,0-9,4.029-9,9s4.029,9,9,9s9-4.029,9-9S35.971,22,31,22L31,22z"/>
	</g>
</g>
<line style="fill:none;stroke:#FFFFFF;stroke-width:2;stroke-miterlimit:10;" x1="31" y1="36" x2="31" y2="26"/>
<line style="fill:none;stroke:#FFFFFF;stroke-width:2;stroke-miterlimit:10;" x1="26" y1="31" x2="36" y2="31"/>
</svg>
